<?xml version="1.0" encoding="utf-8"?>
<!-- Generator: Adobe Illustrator 12.0.0, SVG Export Plug-In . SVG Version: 6.00 Build 51448)  -->
<!DOCTYPE svg PUBLIC "-//W3C//DTD SVG 1.1//EN" "http://www.w3.org/Graphics/SVG/1.1/DTD/svg11.dtd" [
	<!ENTITY ns_svg "http://www.w3.org/2000/svg">
	<!ENTITY ns_xlink "http://www.w3.org/1999/xlink">
]>
<svg  version="1.1" xmlns="&ns_svg;" xmlns:xlink="&ns_xlink;" width="290.938" height="56" viewBox="0 0 290.938 56"
	 overflow="visible" enable-background="new 0 0 290.938 56" xml:space="preserve">
<g id="Gilbertsoft">
	<g>
		<path fill="#004A99" d="M80.557,9.163l-1.217,4.21c-1.779-1.166-4.016-1.749-6.707-1.749c-2.872,0-5.204,1.009-6.995,3.027
			c-1.724,1.928-2.585,4.364-2.585,7.305c0,1.996,0.618,3.659,1.855,4.989c1.282,1.375,2.93,2.063,4.946,2.063
			c1.229,0,2.024-0.079,2.386-0.237l1.353-6.41h-5.126l0.795-3.819h9.821L76.31,31.744c-1.724,0.723-3.883,1.083-6.475,1.083
			c-3.697,0-6.56-0.856-8.589-2.571C59.082,28.417,58,25.693,58,22.083c0-4.387,1.323-7.873,3.97-10.455
			c2.625-2.549,6.134-3.824,10.526-3.824C75.527,7.805,78.213,8.257,80.557,9.163z"/>
		<path fill="#004A99" d="M81.162,32.407l3.806-17.836h4.652l-3.823,17.836H81.162z M85.696,11.324l0.981-4.421h4.636l-0.964,4.421
			H85.696z"/>
		<path fill="#004A99" d="M90.788,32.407l5.515-25.986h4.635l-5.515,25.986H90.788z"/>
		<path fill="#004A99" d="M105.929,6.421h4.737l-2.183,9.98c1.342-1.5,2.938-2.251,4.788-2.251c2.143,0,3.789,0.677,4.939,2.03
			c1.071,1.274,1.607,3.011,1.607,5.21c0,3.045-0.773,5.645-2.318,7.798c-1.726,2.426-4.049,3.638-6.97,3.638
			c-1.32,0-2.307-0.18-2.96-0.54c-0.745-0.407-1.466-1.213-2.166-2.42h-0.068l-0.558,2.54h-4.365L105.929,6.421z M106.792,25.027
			c0,2.794,1.015,4.191,3.045,4.191c1.737,0,3.079-0.929,4.026-2.788c0.733-1.442,1.1-3.065,1.1-4.868
			c0-1.126-0.271-2.033-0.812-2.721c-0.586-0.721-1.398-1.082-2.436-1.082c-1.466,0-2.684,0.823-3.654,2.468
			C107.215,21.681,106.792,23.281,106.792,25.027z"/>
		<path fill="#004A99" d="M138.969,24.947h-12.57c0,2.988,1.652,4.481,4.957,4.481c1.782,0,3.603-0.431,5.464-1.293l-0.592,3.675
			c-2.177,0.678-4.072,1.017-5.685,1.017c-2.65,0-4.72-0.636-6.209-1.911c-1.579-1.354-2.368-3.316-2.368-5.887
			c0-2.865,0.958-5.375,2.876-7.529c1.996-2.233,4.421-3.35,7.274-3.35c2.256,0,4.021,0.565,5.295,1.695
			c1.342,1.187,2.013,2.888,2.013,5.102C139.426,22.179,139.273,23.512,138.969,24.947z M127.025,21.76h7.85
			c0.079-0.419,0.119-0.82,0.119-1.206c0-2.003-0.981-3.005-2.943-3.005c-1.343,0-2.431,0.396-3.265,1.188
			C128.107,19.383,127.521,20.39,127.025,21.76z"/>
		<path fill="#004A99" d="M140.847,32.407l3.181-15.435c0.067-0.293,0.208-1.093,0.423-2.401h4.433l-0.626,3.367h0.067
			c0.439-1.003,1.156-1.877,2.148-2.622c1.037-0.777,2.081-1.166,3.129-1.166c0.712,0,1.298,0.057,1.76,0.169l-0.965,4.523
			c-0.553-0.181-1.143-0.271-1.775-0.271c-2.842,0-4.664,1.942-5.465,5.826l-1.674,8.01H140.847z"/>
		<path fill="#004A99" d="M155.447,17.97l0.727-3.398h3.35l0.795-3.669l4.991-1.624l-1.134,5.293h4.145l-0.728,3.398h-4.146
			l-1.707,7.786c-0.136,0.631-0.203,1.205-0.203,1.723c0,1.16,0.586,1.739,1.759,1.739c0.835,0,1.591-0.141,2.267-0.422
			l-0.813,3.609c-1.273,0.281-2.103,0.423-2.486,0.423c-3.574,0-5.362-1.561-5.362-4.682c0-0.969,0.192-2.355,0.575-4.158
			l1.319-6.018H155.447z"/>
		<path fill="#004A99" d="M182.396,14.881l-0.998,3.514c-1.5-0.564-2.769-0.846-3.806-0.846c-2.087,0-3.131,0.603-3.131,1.808
			c0,0.586,0.525,1.24,1.574,1.961c1.657,1.149,2.622,1.854,2.893,2.113c1.049,0.992,1.573,2.113,1.573,3.363
			c0,2.141-0.846,3.724-2.537,4.749c-1.376,0.855-3.215,1.284-5.515,1.284c-2.098,0-3.908-0.36-5.431-1.082l0.997-3.704
			c1.682,0.925,3.158,1.387,4.434,1.387c2.131,0,3.197-0.66,3.197-1.979c0-0.767-0.525-1.523-1.574-2.267
			c-0.958-0.677-1.922-1.354-2.893-2.031c-1.038-0.947-1.557-2.053-1.557-3.316c0-1.94,0.824-3.412,2.47-4.416
			c1.399-0.846,3.147-1.269,5.245-1.269C178.814,14.15,180.501,14.395,182.396,14.881z"/>
		<path fill="#004A99" d="M194.458,14.15c2.447,0,4.41,0.688,5.888,2.064c1.522,1.421,2.283,3.344,2.283,5.769
			c0,3.146-0.989,5.74-2.969,7.782c-1.979,2.041-4.537,3.062-7.672,3.062c-2.515,0-4.494-0.727-5.938-2.182
			c-1.443-1.456-2.165-3.446-2.165-5.972c0-2.978,1.012-5.476,3.036-7.495C188.945,15.16,191.458,14.15,194.458,14.15z
			 M192.378,29.218c1.657,0,3.005-0.822,4.043-2.467c0.901-1.419,1.354-2.997,1.354-4.732c0-2.839-1.18-4.259-3.536-4.259
			c-1.703,0-3.079,0.806-4.128,2.417c-0.913,1.42-1.37,3.037-1.37,4.851C188.74,27.821,189.953,29.218,192.378,29.218z"/>
		<path fill="#004A99" d="M206.013,32.407l3.063-14.438h-3.604l0.727-3.398h3.604c0.553-2.721,1.302-4.715,2.249-5.979
			C213.338,6.864,215.205,6,217.652,6c0.98,0,1.939,0.152,2.876,0.458l-1.065,3.473c-0.418-0.214-0.892-0.322-1.422-0.322
			c-1.117,0-1.979,0.593-2.589,1.778c-0.304,0.587-0.643,1.648-1.015,3.184h4.162l-0.728,3.398h-4.162l-3.045,14.438H206.013z"/>
		<path fill="#004A99" d="M218.955,17.97l0.727-3.398h3.35l0.795-3.669l4.991-1.624l-1.134,5.293h4.146l-0.729,3.398h-4.144
			l-1.709,7.786c-0.136,0.631-0.203,1.205-0.203,1.723c0,1.16,0.586,1.739,1.759,1.739c0.835,0,1.591-0.141,2.268-0.422
			l-0.812,3.609c-1.275,0.281-2.104,0.423-2.487,0.423c-3.575,0-5.363-1.561-5.363-4.682c0-0.969,0.192-2.355,0.575-4.158
			l1.319-6.018H218.955z"/>
	</g>
	<g>
		<path fill="#004A99" d="M160.791,52.131c-0.699,0.294-1.619,0.44-2.758,0.44c-1.924,0-3.465-0.572-4.627-1.718
			c-1.162-1.144-1.744-2.675-1.744-4.593c0-1.845,0.604-3.345,1.811-4.5c1.189-1.134,2.714-1.7,4.574-1.7
			c1.025,0,1.934,0.172,2.723,0.514l-0.145,1.682c-0.761-0.452-1.593-0.677-2.494-0.677c-1.375,0-2.497,0.448-3.365,1.345
			c-0.846,0.885-1.268,2.014-1.268,3.385c0,1.394,0.445,2.538,1.337,3.435c0.862,0.863,1.935,1.295,3.215,1.295
			c1.1,0,1.979-0.194,2.64-0.584L160.791,52.131z"/>
		<path fill="#004A99" d="M171.117,47.947c0,1.285-0.418,2.369-1.253,3.255c-0.851,0.913-1.928,1.369-3.23,1.369
			c-1.315,0-2.399-0.456-3.257-1.369c-0.835-0.886-1.253-1.97-1.253-3.255c0-1.353,0.417-2.462,1.249-3.326
			c0.83-0.865,1.918-1.298,3.261-1.298c1.331,0,2.41,0.433,3.239,1.298C170.702,45.485,171.117,46.595,171.117,47.947z
			 M169.387,47.947c0-0.889-0.242-1.649-0.728-2.278c-0.521-0.683-1.195-1.022-2.025-1.022c-0.843,0-1.526,0.34-2.051,1.022
			c-0.486,0.629-0.729,1.39-0.729,2.278c0,0.878,0.224,1.624,0.67,2.237c0.509,0.709,1.211,1.063,2.11,1.063
			c0.887,0,1.585-0.354,2.093-1.063C169.168,49.571,169.387,48.825,169.387,47.947z"/>
		<path fill="#004A99" d="M185.955,52.36h-1.64v-5.264c0-1.633-0.522-2.45-1.569-2.45c-0.775,0-1.368,0.337-1.778,1.01
			c-0.355,0.592-0.531,1.345-0.531,2.258v4.446h-1.64v-5.264c0-1.633-0.524-2.45-1.57-2.45c-0.779,0-1.373,0.339-1.783,1.014
			c-0.361,0.592-0.541,1.344-0.541,2.256v4.444h-1.625v-8.826h1.52v1.277h0.034c0.608-0.993,1.544-1.488,2.808-1.488
			c1.229,0,2.066,0.572,2.512,1.715c0.276-0.573,0.708-1.019,1.294-1.334c0.479-0.254,0.959-0.381,1.439-0.381
			c2.047,0,3.071,1.125,3.071,3.373V52.36z"/>
		<path fill="#004A99" d="M197.102,47.786c0,1.336-0.299,2.435-0.896,3.297c-0.684,0.993-1.648,1.488-2.896,1.488
			c-1.383,0-2.368-0.475-2.955-1.425h-0.033V56h-1.625V43.534h1.564v1.248h0.034c0.637-0.974,1.638-1.459,3.003-1.459
			c1.218,0,2.174,0.448,2.866,1.345C196.79,45.484,197.102,46.524,197.102,47.786z M195.373,47.914c0-0.901-0.184-1.646-0.552-2.237
			c-0.429-0.688-1.053-1.03-1.872-1.03c-0.837,0-1.496,0.347-1.977,1.039c-0.435,0.618-0.652,1.378-0.652,2.278
			c0,0.845,0.206,1.577,0.618,2.195c0.48,0.726,1.146,1.089,1.993,1.089c0.796,0,1.425-0.383,1.881-1.147
			C195.187,49.464,195.373,48.736,195.373,47.914z"/>
		<path fill="#004A99" d="M207.099,52.36h-1.579v-1.41h-0.034c-0.238,0.498-0.623,0.893-1.156,1.185
			c-0.533,0.291-1.113,0.437-1.74,0.437c-2.207,0-3.31-1.265-3.31-3.796v-5.241h1.623v4.563c0,1.07,0.136,1.848,0.407,2.332
			c0.289,0.529,0.78,0.803,1.476,0.819c0.893,0.022,1.571-0.31,2.036-0.998c0.435-0.63,0.652-1.509,0.652-2.636v-4.08h1.625V52.36z"
			/>
		<path fill="#004A99" d="M214.701,52.325c-0.563,0.164-1.025,0.246-1.387,0.246c-1.812,0-2.718-0.856-2.718-2.57v-5.159h-2v-1.308
			h2v-2.048l1.623-0.523v2.571h2.347v1.308h-2.347v4.834c0,0.49,0.137,0.88,0.407,1.168c0.254,0.27,0.577,0.404,0.966,0.404
			c0.418,0,0.787-0.104,1.108-0.313V52.325z"/>
		<path fill="#004A99" d="M224.061,48.315h-6.315c0,0.849,0.293,1.554,0.879,2.114c0.561,0.546,1.237,0.818,2.033,0.818
			c0.49,0,1.03-0.106,1.617-0.318c0.502-0.179,0.872-0.367,1.11-0.563V52c-1.062,0.381-1.992,0.571-2.793,0.571
			c-1.522,0-2.676-0.44-3.46-1.318c-0.744-0.823-1.116-1.979-1.116-3.467c0-1.313,0.38-2.386,1.144-3.216
			c0.762-0.831,1.764-1.247,3.006-1.247C222.762,43.323,224.061,44.987,224.061,48.315z M222.331,47.098
			c0-0.698-0.192-1.276-0.576-1.731c-0.407-0.479-0.95-0.72-1.628-0.72c-0.735,0-1.316,0.266-1.747,0.795
			c-0.35,0.439-0.562,0.992-0.635,1.656H222.331z"/>
		<path fill="#004A99" d="M231.183,44.904c-0.254-0.102-0.556-0.152-0.906-0.152c-0.734,0-1.321,0.324-1.759,0.971
			c-0.438,0.648-0.657,1.523-0.657,2.627v4.011h-1.625v-8.826h1.52v1.361h0.033c0.221-0.463,0.545-0.84,0.972-1.132
			c0.428-0.294,0.876-0.44,1.347-0.44c0.311,0,0.669,0.039,1.076,0.119V44.904z"/>
		<path fill="#004A99" d="M237.82,52.325c-0.565,0.164-1.027,0.246-1.39,0.246c-1.811,0-2.716-0.856-2.716-2.57v-5.159h-2v-1.308h2
			v-2.048l1.625-0.523v2.571h2.345v1.308h-2.345v4.834c0,0.49,0.135,0.88,0.405,1.168c0.254,0.27,0.576,0.404,0.965,0.404
			c0.419,0,0.788-0.104,1.11-0.313V52.325z"/>
		<path fill="#004A99" d="M247.178,48.315h-6.316c0,0.849,0.295,1.554,0.882,2.114c0.559,0.546,1.235,0.818,2.032,0.818
			c0.491,0,1.029-0.106,1.616-0.318c0.503-0.179,0.872-0.367,1.109-0.563V52c-1.061,0.381-1.99,0.571-2.792,0.571
			c-1.522,0-2.675-0.44-3.459-1.318c-0.745-0.823-1.118-1.979-1.118-3.467c0-1.313,0.383-2.386,1.145-3.216
			c0.762-0.831,1.764-1.247,3.006-1.247C245.879,43.323,247.178,44.987,247.178,48.315z M245.448,47.098
			c0-0.698-0.191-1.276-0.576-1.731c-0.407-0.479-0.949-0.72-1.628-0.72c-0.734,0-1.316,0.266-1.746,0.795
			c-0.351,0.439-0.563,0.992-0.637,1.656H245.448z"/>
		<path fill="#004A99" d="M255.188,52.207c-0.526,0.243-1.208,0.364-2.051,0.364c-1.311,0-2.393-0.456-3.252-1.369
			c-0.836-0.886-1.253-1.97-1.253-3.255c0-1.353,0.415-2.462,1.247-3.326c0.832-0.865,1.916-1.298,3.254-1.298
			c0.75,0,1.409,0.116,1.98,0.348l-0.146,1.355c-0.609-0.253-1.199-0.38-1.77-0.38c-0.865,0-1.565,0.34-2.101,1.022
			c-0.492,0.623-0.736,1.384-0.736,2.278c0,0.884,0.228,1.63,0.687,2.237c0.531,0.709,1.286,1.063,2.266,1.063
			c0.655,0,1.24-0.167,1.756-0.501L255.188,52.207z"/>
		<path fill="#004A99" d="M264.862,52.36h-1.625v-4.571c0-1.069-0.135-1.847-0.407-2.332c-0.288-0.522-0.776-0.794-1.466-0.811
			c-0.894-0.027-1.576,0.302-2.045,0.989c-0.436,0.636-0.653,1.518-0.653,2.645v4.08h-1.623V39.368h1.623V44.8h0.034
			c0.622-0.985,1.571-1.477,2.848-1.477c2.21,0,3.314,1.263,3.314,3.787V52.36z"/>
		<path fill="#004A99" d="M275.444,52.36h-1.624v-4.571c0-1.069-0.136-1.847-0.407-2.332c-0.288-0.522-0.777-0.794-1.468-0.811
			c-0.894-0.027-1.574,0.3-2.044,0.985c-0.436,0.636-0.652,1.519-0.652,2.646v4.083h-1.624v-8.826h1.579v1.395h0.034
			c0.242-0.489,0.629-0.88,1.16-1.171c0.529-0.289,1.108-0.435,1.735-0.435c2.206,0,3.311,1.263,3.311,3.787V52.36z"/>
		<path fill="#004A99" d="M280.161,41.549h-1.85v-1.835h1.85V41.549z M280.056,52.36h-1.64v-8.826h1.64V52.36z"/>
		<path fill="#004A99" d="M290.938,52.36h-2.338l-3.957-4.542v4.542h-1.623V39.368h1.623v7.74l3.553-3.574h2.222l-4.107,3.903
			L290.938,52.36z"/>
	</g>
</g>
<g id="TYPO3_Logo">
	<path fill="#EF861D" d="M41.83,38.56c-0.816,0.273-1.497,0.273-2.315,0.273c-7.085,0-17.577-24.8-17.577-33.113
		c0-2.998,0.682-4.087,1.771-4.904C14.988,1.906,4.497,5.04,1.227,9.127C0.409,10.219,0,11.716,0,13.76
		C0,26.706,13.762,56,23.573,56C28.069,56,35.563,48.641,41.83,38.56"/>
	<path fill="#EF861D" d="M37.335,0C46.329,0,55.32,1.497,55.32,6.539c0,10.355-6.541,22.754-9.81,22.754
		c-5.996,0-13.489-16.487-13.489-24.798C32.021,0.679,33.519,0,37.335,0"/>
</g>
</svg>
