<?xml version="1.0" encoding="utf-8"?>
<!-- Generator: Adobe Illustrator 12.0.0, SVG Export Plug-In . SVG Version: 6.00 Build 51448)  -->
<!DOCTYPE svg PUBLIC "-//W3C//DTD SVG 1.1//EN" "http://www.w3.org/Graphics/SVG/1.1/DTD/svg11.dtd" [
	<!ENTITY ns_svg "http://www.w3.org/2000/svg">
	<!ENTITY ns_xlink "http://www.w3.org/1999/xlink">
]>
<svg  version="1.1" xmlns="&ns_svg;" xmlns:xlink="&ns_xlink;" width="290" height="60" viewBox="0 0 290 60"
	 overflow="visible" enable-background="new 0 0 290 60" xml:space="preserve">
<g id="Background" display="none">
	<rect display="inline" fill="#111111" width="290" height="60"/>
</g>
<g id="Gilbertsoft">
	<g>
		<path fill="#FFFFFF" d="M35.111,23.261l-1.786,6.181c-2.612-1.71-5.894-2.566-9.846-2.566c-4.216,0-7.639,1.48-10.268,4.442
			c-2.53,2.831-3.794,6.404-3.794,10.723c0,2.93,0.908,5.372,2.723,7.322c1.881,2.021,4.301,3.03,7.26,3.03
			c1.804,0,2.972-0.116,3.501-0.348l1.986-9.409h-7.524l1.168-5.606h14.417l-4.07,19.379c-2.531,1.06-5.7,1.591-9.505,1.591
			c-5.427,0-9.629-1.258-12.607-3.774C3.588,51.526,2,47.527,2,42.229c0-6.44,1.942-11.556,5.828-15.347
			c3.853-3.742,9.003-5.612,15.452-5.612C27.728,21.269,31.671,21.934,35.111,23.261z"/>
		<path fill="#FFFFFF" d="M35.999,57.382l5.588-26.18h6.829l-5.612,26.18H35.999z M42.654,26.435l1.44-6.49h6.804l-1.416,6.49
			H42.654z"/>
		<path fill="#FFFFFF" d="M50.129,57.382l8.096-38.144h6.804l-8.096,38.144H50.129z"/>
		<path fill="#FFFFFF" d="M72.355,19.238h6.953l-3.204,14.649c1.97-2.201,4.313-3.302,7.028-3.302c3.146,0,5.563,0.993,7.251,2.98
			c1.573,1.87,2.359,4.42,2.359,7.648c0,4.47-1.134,8.286-3.402,11.448C86.808,56.221,83.397,58,79.109,58
			c-1.937,0-3.385-0.265-4.346-0.795c-1.093-0.596-2.152-1.779-3.179-3.551h-0.099l-0.82,3.728h-6.407L72.355,19.238z
			 M73.622,46.549c0,4.102,1.49,6.153,4.47,6.153c2.55,0,4.52-1.365,5.91-4.095c1.076-2.116,1.614-4.497,1.614-7.144
			c0-1.654-0.397-2.985-1.192-3.995c-0.861-1.057-2.053-1.587-3.576-1.587c-2.152,0-3.94,1.207-5.364,3.622
			C74.242,41.638,73.622,43.986,73.622,46.549z"/>
		<path fill="#FFFFFF" d="M120.854,46.434h-18.451c0,4.384,2.425,6.578,7.276,6.578c2.616,0,5.289-0.634,8.021-1.898l-0.869,5.394
			c-3.195,0.995-5.977,1.493-8.344,1.493c-3.89,0-6.928-0.936-9.113-2.806c-2.318-1.987-3.477-4.868-3.477-8.643
			c0-4.205,1.407-7.889,4.222-11.051c2.931-3.277,6.49-4.917,10.678-4.917c3.311,0,5.902,0.829,7.773,2.487
			c1.97,1.743,2.955,4.238,2.955,7.49C121.524,42.369,121.301,44.325,120.854,46.434z M103.322,41.754h11.522
			c0.116-0.615,0.174-1.206,0.174-1.771c0-2.939-1.44-4.41-4.321-4.41c-1.97,0-3.568,0.58-4.793,1.743
			C104.911,38.264,104.05,39.742,103.322,41.754z"/>
		<path fill="#FFFFFF" d="M123.61,57.382l4.668-22.656c0.1-0.43,0.307-1.605,0.621-3.523h6.506l-0.919,4.942h0.099
			c0.646-1.474,1.697-2.757,3.154-3.85c1.523-1.141,3.055-1.71,4.594-1.71c1.043,0,1.904,0.083,2.583,0.247l-1.415,6.641
			c-0.812-0.266-1.681-0.397-2.608-0.397c-4.172,0-6.845,2.85-8.021,8.551l-2.458,11.757H123.61z"/>
		<path fill="#FFFFFF" d="M145.042,36.191l1.068-4.989h4.917l1.167-5.387l7.326-2.383l-1.664,7.77h6.084l-1.068,4.989h-6.084
			l-2.508,11.429c-0.198,0.924-0.298,1.769-0.298,2.527c0,1.702,0.86,2.555,2.582,2.555c1.226,0,2.335-0.207,3.328-0.621
			l-1.192,5.297c-1.87,0.414-3.087,0.622-3.65,0.622c-5.248,0-7.871-2.292-7.871-6.873c0-1.423,0.281-3.457,0.844-6.104l1.938-8.832
			H145.042z"/>
		<path fill="#FFFFFF" d="M184.601,31.656l-1.465,5.158c-2.202-0.827-4.064-1.241-5.588-1.241c-3.063,0-4.594,0.884-4.594,2.654
			c0,0.859,0.77,1.818,2.31,2.878c2.434,1.686,3.849,2.721,4.246,3.102c1.54,1.454,2.31,3.101,2.31,4.936
			c0,3.143-1.242,5.467-3.726,6.972c-2.02,1.257-4.718,1.886-8.095,1.886c-3.08,0-5.737-0.529-7.972-1.589l1.465-5.437
			c2.467,1.358,4.636,2.037,6.507,2.037c3.129,0,4.693-0.969,4.693-2.907c0-1.126-0.771-2.235-2.31-3.328
			c-1.407-0.993-2.823-1.986-4.247-2.98c-1.522-1.391-2.284-3.014-2.284-4.868c0-2.847,1.208-5.008,3.626-6.481
			c2.053-1.241,4.618-1.862,7.698-1.862C179.344,30.584,181.819,30.941,184.601,31.656z"/>
		<path fill="#FFFFFF" d="M202.307,30.584c3.593,0,6.473,1.009,8.642,3.03c2.235,2.086,3.353,4.908,3.353,8.468
			c0,4.619-1.453,8.427-4.358,11.423C207.037,56.502,203.283,58,198.681,58c-3.691,0-6.597-1.067-8.716-3.203
			s-3.179-5.058-3.179-8.767c0-4.37,1.485-8.037,4.457-11.001C194.215,32.066,197.902,30.584,202.307,30.584z M199.252,52.702
			c2.434,0,4.412-1.208,5.936-3.623c1.324-2.083,1.986-4.397,1.986-6.946c0-4.168-1.73-6.251-5.19-6.251
			c-2.5,0-4.52,1.183-6.059,3.547c-1.342,2.085-2.012,4.458-2.012,7.12C193.913,50.65,195.692,52.702,199.252,52.702z"/>
		<path fill="#FFFFFF" d="M219.268,57.382l4.495-21.19h-5.29l1.068-4.989h5.289c0.812-3.995,1.912-6.921,3.303-8.778
			c1.888-2.536,4.627-3.804,8.22-3.804c1.44,0,2.848,0.224,4.222,0.672l-1.564,5.098c-0.612-0.314-1.308-0.472-2.086-0.472
			c-1.639,0-2.905,0.869-3.8,2.61c-0.446,0.861-0.943,2.42-1.489,4.674h6.108l-1.067,4.989h-6.109l-4.47,21.19H219.268z"/>
		<path fill="#FFFFFF" d="M238.265,36.191l1.068-4.989h4.917l1.167-5.387l7.325-2.383l-1.663,7.77h6.084l-1.068,4.989h-6.084
			l-2.508,11.429c-0.199,0.924-0.298,1.769-0.298,2.527c0,1.702,0.86,2.555,2.582,2.555c1.226,0,2.335-0.207,3.328-0.621
			l-1.192,5.297c-1.871,0.414-3.088,0.622-3.65,0.622c-5.248,0-7.872-2.292-7.872-6.873c0-1.423,0.281-3.457,0.845-6.104
			l1.937-8.832H238.265z"/>
	</g>
</g>
<g id="TYPO3">
	<path fill="#EF861D" d="M280.994,21.991c-0.424,0.141-0.778,0.141-1.2,0.141c-3.675,0-9.113-12.855-9.113-17.167
		c0-1.554,0.354-2.119,0.918-2.542c-4.52,0.566-9.959,2.189-11.654,4.309c-0.424,0.566-0.637,1.341-0.637,2.401
		c0,6.711,7.135,21.898,12.221,21.898C273.858,31.031,277.745,27.215,280.994,21.991"/>
	<path fill="#EF861D" d="M278.664,2c4.66,0,9.323,0.775,9.323,3.39c0,5.368-3.393,11.796-5.085,11.796
		c-3.108,0-6.995-8.547-6.995-12.855C275.907,2.352,276.686,2,278.664,2"/>
</g>
</svg>
