<?xml version="1.0" encoding="utf-8"?>
<!-- Generator: Adobe Illustrator 12.0.0, SVG Export Plug-In . SVG Version: 6.00 Build 51448)  -->
<!DOCTYPE svg PUBLIC "-//W3C//DTD SVG 1.1//EN" "http://www.w3.org/Graphics/SVG/1.1/DTD/svg11.dtd" [
	<!ENTITY ns_svg "http://www.w3.org/2000/svg">
	<!ENTITY ns_xlink "http://www.w3.org/1999/xlink">
]>
<svg  version="1.1" xmlns="&ns_svg;" xmlns:xlink="&ns_xlink;" width="288" height="66.003" viewBox="0 0 288 66.003"
	 overflow="visible" enable-background="new 0 0 288 66.003" xml:space="preserve">
<g id="Gilbertsoft">
	<g>
		<path fill="#064A97" d="M89.63,21.84l-1.147,3.97c-1.678-1.099-3.787-1.65-6.325-1.65c-2.707,0-4.906,0.953-6.594,2.854
			c-1.625,1.819-2.439,4.115-2.439,6.887c0,1.885,0.584,3.451,1.75,4.704c1.209,1.298,2.762,1.946,4.664,1.946
			c1.159,0,1.91-0.075,2.25-0.225l1.275-6.043h-4.833l0.75-3.601h9.26l-2.614,12.45c-1.626,0.681-3.662,1.02-6.106,1.02
			c-3.485,0-6.184-0.808-8.098-2.427c-2.041-1.731-3.06-4.3-3.06-7.703c0-4.138,1.248-7.424,3.744-9.859
			c2.475-2.403,5.784-3.605,9.925-3.605C84.888,20.56,87.42,20.987,89.63,21.84z"/>
		<path fill="#064A97" d="M90.201,43.758L93.79,26.94h4.386l-3.605,16.818H90.201z M94.476,23.878l0.925-4.17h4.371l-0.91,4.17
			H94.476z"/>
		<path fill="#064A97" d="M99.277,43.758l5.2-24.502h4.37l-5.199,24.502H99.277z"/>
		<path fill="#064A97" d="M113.554,19.256h4.466l-2.058,9.411c1.266-1.416,2.77-2.123,4.515-2.123c2.021,0,3.573,0.636,4.658,1.914
			c1.01,1.202,1.515,2.839,1.515,4.913c0,2.871-0.729,5.322-2.186,7.354c-1.626,2.287-3.817,3.43-6.571,3.43
			c-1.245,0-2.175-0.17-2.792-0.511c-0.702-0.383-1.383-1.143-2.042-2.28h-0.064l-0.526,2.396h-4.116L113.554,19.256z
			 M114.367,36.798c0,2.635,0.957,3.952,2.872,3.952c1.637,0,2.901-0.876,3.794-2.629c0.692-1.359,1.038-2.891,1.038-4.591
			c0-1.062-0.255-1.916-0.766-2.564c-0.553-0.68-1.318-1.02-2.297-1.02c-1.382,0-2.53,0.775-3.445,2.326
			C114.767,33.644,114.367,35.152,114.367,36.798z"/>
		<path fill="#064A97" d="M144.707,36.725h-11.853c0,2.815,1.559,4.225,4.675,4.225c1.681,0,3.397-0.406,5.151-1.221l-0.557,3.466
			c-2.054,0.639-3.84,0.959-5.361,0.959c-2.498,0-4.45-0.6-5.854-1.803c-1.488-1.277-2.232-3.126-2.232-5.551
			c0-2.701,0.903-5.067,2.712-7.098c1.883-2.106,4.167-3.159,6.859-3.159c2.127,0,3.79,0.532,4.992,1.598
			c1.266,1.118,1.898,2.722,1.898,4.811C145.138,34.113,144.993,35.372,144.707,36.725z M133.445,33.718h7.401
			c0.074-0.396,0.112-0.773,0.112-1.137c0-1.889-0.926-2.833-2.776-2.833c-1.266,0-2.291,0.372-3.079,1.12
			C134.466,31.476,133.912,32.426,133.445,33.718z"/>
		<path fill="#064A97" d="M146.478,43.758l3-14.556c0.064-0.275,0.195-1.029,0.397-2.263h4.179l-0.59,3.175h0.064
			c0.415-0.946,1.092-1.771,2.026-2.472c0.976-0.734,1.961-1.099,2.951-1.099c0.67,0,1.222,0.052,1.657,0.158l-0.909,4.265
			c-0.522-0.17-1.077-0.254-1.674-0.254c-2.68,0-4.396,1.83-5.151,5.492l-1.58,7.554H146.478z"/>
		<path fill="#064A97" d="M160.246,30.144l0.684-3.204h3.158l0.748-3.46l4.708-1.531l-1.07,4.991h3.908l-0.686,3.204h-3.909
			l-1.608,7.342c-0.127,0.596-0.191,1.137-0.191,1.624c0,1.094,0.553,1.641,1.657,1.641c0.787,0,1.501-0.133,2.137-0.397l-0.765,3.4
			c-1.201,0.267-1.984,0.4-2.344,0.4c-3.37,0-5.058-1.471-5.058-4.415c0-0.913,0.183-2.221,0.541-3.921l1.246-5.674H160.246z"/>
		<path fill="#064A97" d="M185.654,27.231l-0.941,3.315c-1.414-0.533-2.61-0.798-3.588-0.798c-1.968,0-2.952,0.567-2.952,1.703
			c0,0.554,0.495,1.169,1.483,1.849c1.563,1.086,2.473,1.749,2.729,1.993c0.988,0.936,1.483,1.993,1.483,3.172
			c0,2.018-0.798,3.511-2.393,4.478c-1.298,0.808-3.031,1.211-5.199,1.211c-1.979,0-3.686-0.339-5.121-1.02l0.94-3.493
			c1.585,0.871,2.978,1.309,4.181,1.309c2.008,0,3.015-0.623,3.015-1.867c0-0.724-0.495-1.436-1.485-2.136
			c-0.902-0.64-1.812-1.278-2.727-1.916c-0.979-0.894-1.468-1.936-1.468-3.128c0-1.827,0.777-3.217,2.329-4.164
			c1.318-0.798,2.967-1.195,4.945-1.195C182.277,26.544,183.868,26.774,185.654,27.231z"/>
		<path fill="#064A97" d="M197.027,26.544c2.308,0,4.159,0.647,5.553,1.946c1.436,1.34,2.152,3.152,2.152,5.439
			c0,2.967-0.933,5.412-2.799,7.338c-1.867,1.925-4.278,2.887-7.234,2.887c-2.371,0-4.237-0.686-5.6-2.058
			c-1.36-1.372-2.041-3.251-2.041-5.632c0-2.807,0.954-5.162,2.862-7.066C191.83,27.495,194.199,26.544,197.027,26.544z
			 M195.066,40.75c1.563,0,2.834-0.774,3.813-2.327c0.851-1.338,1.276-2.825,1.276-4.461c0-2.678-1.112-4.016-3.335-4.016
			c-1.605,0-2.902,0.76-3.892,2.278c-0.86,1.339-1.292,2.863-1.292,4.573C191.637,39.433,192.78,40.75,195.066,40.75z"/>
		<path fill="#064A97" d="M207.923,43.758l2.888-13.614h-3.397l0.685-3.204h3.399c0.522-2.566,1.227-4.446,2.12-5.639
			c1.213-1.628,2.972-2.443,5.281-2.443c0.923,0,1.828,0.145,2.711,0.431l-1.006,3.275c-0.393-0.202-0.839-0.303-1.337-0.303
			c-1.057,0-1.868,0.559-2.442,1.677c-0.287,0.554-0.605,1.555-0.956,3.002h3.923l-0.686,3.204h-3.925l-2.871,13.614H207.923z"/>
		<path fill="#064A97" d="M220.125,30.144l0.688-3.204h3.158l0.748-3.46l4.705-1.531l-1.067,4.991h3.908l-0.687,3.204h-3.906
			l-1.611,7.342c-0.129,0.596-0.193,1.137-0.193,1.624c0,1.094,0.553,1.641,1.659,1.641c0.787,0,1.5-0.133,2.137-0.397l-0.764,3.4
			c-1.203,0.267-1.984,0.4-2.346,0.4c-3.373,0-5.058-1.471-5.058-4.415c0-0.913,0.182-2.221,0.543-3.921l1.243-5.674H220.125z"/>
	</g>
	<g>
		<path fill="#064A97" d="M165.283,62.354c-0.659,0.278-1.526,0.416-2.602,0.416c-1.814,0-3.265-0.538-4.36-1.619
			c-1.096-1.079-1.646-2.522-1.646-4.331c0-1.74,0.568-3.151,1.705-4.243c1.124-1.07,2.561-1.604,4.314-1.604
			c0.967,0,1.823,0.164,2.569,0.486l-0.139,1.586c-0.718-0.426-1.501-0.638-2.353-0.638c-1.294,0-2.353,0.424-3.172,1.267
			c-0.797,0.835-1.195,1.9-1.195,3.192c0,1.314,0.422,2.393,1.26,3.238c0.814,0.813,1.825,1.221,3.034,1.221
			c1.035,0,1.864-0.184,2.486-0.551L165.283,62.354z"/>
		<path fill="#064A97" d="M175.021,58.411c0,1.212-0.395,2.233-1.183,3.068c-0.802,0.863-1.817,1.291-3.044,1.291
			c-1.243,0-2.266-0.428-3.071-1.291c-0.787-0.835-1.183-1.856-1.183-3.068c0-1.275,0.394-2.321,1.179-3.138
			c0.782-0.813,1.809-1.223,3.075-1.223c1.252,0,2.271,0.409,3.053,1.223C174.629,56.089,175.021,57.135,175.021,58.411z
			 M173.388,58.411c0-0.838-0.228-1.556-0.686-2.148c-0.49-0.642-1.126-0.964-1.908-0.964c-0.797,0-1.441,0.322-1.934,0.964
			c-0.461,0.593-0.69,1.311-0.69,2.148c0,0.828,0.211,1.53,0.633,2.109c0.48,0.669,1.142,1.003,1.991,1.003
			c0.833,0,1.493-0.334,1.972-1.003C173.183,59.941,173.388,59.239,173.388,58.411z"/>
		<path fill="#064A97" d="M189.011,62.572h-1.546v-4.963c0-1.54-0.492-2.311-1.48-2.311c-0.73,0-1.29,0.317-1.677,0.95
			c-0.335,0.56-0.501,1.27-0.501,2.131v4.192h-1.545v-4.963c0-1.54-0.495-2.311-1.481-2.311c-0.734,0-1.294,0.319-1.681,0.957
			c-0.341,0.555-0.511,1.264-0.511,2.127v4.189h-1.532V54.25h1.433v1.205h0.032c0.573-0.938,1.456-1.404,2.647-1.404
			c1.158,0,1.948,0.54,2.369,1.617c0.26-0.542,0.667-0.959,1.22-1.258c0.451-0.24,0.903-0.359,1.357-0.359
			c1.93,0,2.896,1.062,2.896,3.182V62.572z"/>
		<path fill="#064A97" d="M199.521,58.258c0,1.259-0.282,2.298-0.845,3.108c-0.645,0.938-1.555,1.403-2.731,1.403
			c-1.304,0-2.232-0.446-2.786-1.343h-0.031v4.576h-1.532V54.25h1.475v1.178h0.032c0.601-0.919,1.545-1.377,2.831-1.377
			c1.149,0,2.051,0.421,2.703,1.269C199.228,56.089,199.521,57.068,199.521,58.258z M197.891,58.379c0-0.851-0.173-1.553-0.52-2.11
			c-0.404-0.647-0.992-0.971-1.767-0.971c-0.788,0-1.409,0.326-1.863,0.978c-0.409,0.585-0.614,1.301-0.614,2.15
			c0,0.797,0.194,1.487,0.582,2.069c0.454,0.687,1.081,1.027,1.88,1.027c0.75,0,1.343-0.359,1.773-1.082
			C197.715,59.839,197.891,59.156,197.891,58.379z"/>
		<path fill="#064A97" d="M208.946,62.572h-1.488v-1.33h-0.032c-0.225,0.47-0.588,0.843-1.09,1.119
			c-0.503,0.272-1.05,0.409-1.642,0.409c-2.081,0-3.12-1.192-3.12-3.577V54.25h1.53v4.301c0,1.011,0.128,1.743,0.384,2.2
			c0.272,0.498,0.735,0.756,1.392,0.772c0.841,0.021,1.481-0.293,1.92-0.939c0.409-0.597,0.615-1.425,0.615-2.486V54.25h1.531
			V62.572z"/>
		<path fill="#064A97" d="M216.117,62.538c-0.533,0.155-0.967,0.232-1.308,0.232c-1.71,0-2.564-0.806-2.564-2.424v-4.864h-1.886
			V54.25h1.886v-1.933l1.531-0.49v2.423h2.212v1.232h-2.212v4.558c0,0.463,0.129,0.83,0.382,1.102
			c0.239,0.255,0.546,0.382,0.911,0.382c0.396,0,0.744-0.1,1.048-0.295V62.538z"/>
		<path fill="#064A97" d="M224.94,58.757h-5.955c0,0.801,0.276,1.467,0.829,1.994c0.529,0.515,1.167,0.771,1.917,0.771
			c0.463,0,0.972-0.101,1.524-0.302c0.474-0.167,0.823-0.343,1.047-0.527v1.538c-1.001,0.358-1.878,0.538-2.633,0.538
			c-1.436,0-2.523-0.416-3.263-1.243c-0.702-0.775-1.054-1.864-1.054-3.269c0-1.237,0.359-2.249,1.079-3.032
			c0.719-0.783,1.663-1.176,2.834-1.176C223.716,54.05,224.94,55.621,224.94,58.757z M223.31,57.609
			c0-0.658-0.183-1.204-0.543-1.632c-0.386-0.452-0.895-0.679-1.537-0.679c-0.691,0-1.239,0.25-1.646,0.748
			c-0.329,0.414-0.529,0.937-0.599,1.563H223.31z"/>
		<path fill="#064A97" d="M231.656,55.54c-0.24-0.095-0.524-0.141-0.854-0.141c-0.693,0-1.248,0.304-1.658,0.914
			c-0.411,0.611-0.621,1.437-0.621,2.477v3.782h-1.53V54.25h1.432v1.283h0.032c0.207-0.437,0.514-0.792,0.914-1.067
			c0.405-0.277,0.827-0.415,1.271-0.415c0.293,0,0.633,0.037,1.016,0.112V55.54z"/>
		<path fill="#064A97" d="M237.915,62.538c-0.534,0.155-0.97,0.232-1.31,0.232c-1.708,0-2.561-0.806-2.561-2.424v-4.864h-1.888
			V54.25h1.888v-1.933l1.531-0.49v2.423h2.21v1.232h-2.21v4.558c0,0.463,0.127,0.83,0.382,1.102
			c0.239,0.255,0.544,0.382,0.909,0.382c0.394,0,0.744-0.1,1.048-0.295V62.538z"/>
		<path fill="#064A97" d="M246.736,58.757h-5.954c0,0.801,0.279,1.467,0.832,1.994c0.526,0.515,1.162,0.771,1.915,0.771
			c0.463,0,0.97-0.101,1.524-0.302c0.474-0.167,0.824-0.343,1.046-0.527v1.538c-1,0.358-1.877,0.538-2.632,0.538
			c-1.437,0-2.523-0.416-3.263-1.243c-0.702-0.775-1.054-1.864-1.054-3.269c0-1.237,0.361-2.249,1.079-3.032
			c0.719-0.783,1.662-1.176,2.834-1.176C245.512,54.05,246.736,55.621,246.736,58.757z M245.106,57.609
			c0-0.658-0.18-1.204-0.543-1.632c-0.384-0.452-0.895-0.679-1.534-0.679c-0.694,0-1.24,0.25-1.646,0.748
			c-0.331,0.414-0.532,0.937-0.602,1.563H245.106z"/>
		<path fill="#064A97" d="M254.292,62.427c-0.495,0.229-1.14,0.343-1.935,0.343c-1.235,0-2.256-0.428-3.065-1.291
			c-0.789-0.835-1.184-1.856-1.184-3.068c0-1.275,0.394-2.321,1.178-3.138c0.783-0.813,1.806-1.223,3.067-1.223
			c0.708,0,1.329,0.108,1.868,0.328l-0.138,1.278c-0.573-0.239-1.132-0.358-1.669-0.358c-0.816,0-1.476,0.322-1.979,0.964
			c-0.465,0.587-0.695,1.303-0.695,2.148c0,0.833,0.217,1.537,0.649,2.109c0.499,0.669,1.211,1.003,2.136,1.003
			c0.617,0,1.17-0.157,1.654-0.473L254.292,62.427z"/>
		<path fill="#064A97" d="M263.412,62.572h-1.531v-4.309c0-1.011-0.127-1.743-0.384-2.201c-0.271-0.492-0.732-0.748-1.383-0.764
			c-0.843-0.025-1.485,0.285-1.928,0.932c-0.411,0.599-0.614,1.432-0.614,2.494v3.848h-1.532V50.321h1.532v5.122h0.029
			c0.587-0.928,1.482-1.393,2.687-1.393c2.084,0,3.124,1.192,3.124,3.57V62.572z"/>
		<path fill="#064A97" d="M273.392,62.572h-1.532v-4.309c0-1.011-0.128-1.743-0.383-2.201c-0.274-0.492-0.734-0.748-1.385-0.764
			c-0.843-0.025-1.486,0.282-1.929,0.93c-0.409,0.599-0.614,1.43-0.614,2.495v3.849h-1.531V54.25h1.49v1.315h0.029
			c0.23-0.46,0.597-0.829,1.096-1.105c0.497-0.273,1.045-0.409,1.637-0.409c2.081,0,3.122,1.192,3.122,3.57V62.572z"/>
		<path fill="#064A97" d="M277.839,52.379h-1.745v-1.731h1.745V52.379z M277.738,62.572h-1.545V54.25h1.545V62.572z"/>
		<path fill="#064A97" d="M288,62.572h-2.204l-3.73-4.281v4.281h-1.531V50.321h1.531v7.299l3.35-3.37h2.095l-3.873,3.682L288,62.572
			z"/>
	</g>
</g>
<g id="TYPO3_Logo">
	<path fill="#EF861D" d="M49.302,45.448c-0.962,0.322-1.764,0.322-2.729,0.322c-8.351,0-20.717-29.23-20.717-39.028
		c0-3.533,0.803-4.817,2.087-5.78C17.666,2.247,5.3,5.939,1.446,10.758C0.482,12.044,0,13.809,0,16.218
		c0,15.258,16.221,49.786,27.784,49.786C33.083,66.003,41.915,57.33,49.302,45.448"/>
	<path fill="#EF861D" d="M44.004,0c10.6,0,21.198,1.764,21.198,7.707c0,12.205-7.709,26.818-11.563,26.818
		c-7.067,0-15.899-19.431-15.899-29.228C37.741,0.8,39.506,0,44.004,0"/>
</g>
</svg>
