<?xml version="1.0" encoding="utf-8"?>
<!-- Generator: Adobe Illustrator 12.0.0, SVG Export Plug-In . SVG Version: 6.00 Build 51448)  -->
<!DOCTYPE svg PUBLIC "-//W3C//DTD SVG 1.1//EN" "http://www.w3.org/Graphics/SVG/1.1/DTD/svg11.dtd" [
	<!ENTITY ns_svg "http://www.w3.org/2000/svg">
	<!ENTITY ns_xlink "http://www.w3.org/1999/xlink">
]>
<svg  version="1.1" xmlns="&ns_svg;" xmlns:xlink="&ns_xlink;" width="244.351" height="56" viewBox="0 0 244.351 56"
	 overflow="visible" enable-background="new 0 0 244.351 56" xml:space="preserve">
<g id="Gilbertsoft">
	<g>
		<path fill="#E9EAF4" d="M76.045,18.53l-0.974,3.369c-1.423-0.932-3.212-1.4-5.366-1.4c-2.297,0-4.163,0.809-5.595,2.422
			c-1.379,1.543-2.069,3.491-2.069,5.844c0,1.598,0.495,2.927,1.484,3.991c1.026,1.102,2.344,1.651,3.957,1.651
			c0.983,0,1.62-0.063,1.909-0.19l1.082-5.127h-4.101l0.636-3.055h7.856l-2.218,10.563c-1.38,0.578-3.106,0.865-5.181,0.865
			c-2.957,0-5.247-0.686-6.871-2.059C58.865,33.934,58,31.755,58,28.867c0-3.51,1.059-6.298,3.176-8.365
			c2.1-2.039,4.907-3.059,8.421-3.059C72.022,17.444,74.17,17.806,76.045,18.53z"/>
		<path fill="#E9EAF4" d="M76.53,37.126l3.045-14.269h3.722l-3.059,14.269H76.53z M80.157,20.259l0.785-3.538h3.708l-0.771,3.538
			H80.157z"/>
		<path fill="#E9EAF4" d="M84.23,37.126l4.412-20.789h3.708l-4.411,20.789H84.23z"/>
		<path fill="#E9EAF4" d="M96.343,16.337h3.79l-1.746,7.984c1.074-1.201,2.35-1.801,3.831-1.801c1.714,0,3.031,0.54,3.952,1.624
			c0.856,1.02,1.285,2.409,1.285,4.168c0,2.437-0.618,4.516-1.854,6.239c-1.38,1.94-3.239,2.91-5.575,2.91
			c-1.056,0-1.846-0.145-2.369-0.434c-0.596-0.324-1.173-0.969-1.732-1.935H95.87l-0.446,2.032h-3.492L96.343,16.337z
			 M97.034,31.222c0,2.235,0.812,3.353,2.437,3.353c1.389,0,2.462-0.743,3.22-2.23c0.587-1.153,0.88-2.452,0.88-3.895
			c0-0.901-0.217-1.626-0.65-2.176c-0.469-0.577-1.118-0.866-1.949-0.866c-1.172,0-2.146,0.659-2.923,1.974
			C97.373,28.544,97.034,29.824,97.034,31.222z"/>
		<path fill="#E9EAF4" d="M122.775,31.159h-10.056c0,2.389,1.322,3.584,3.966,3.584c1.426,0,2.883-0.345,4.371-1.035l-0.473,2.94
			c-1.742,0.542-3.258,0.813-4.548,0.813c-2.12,0-3.776-0.509-4.967-1.529c-1.263-1.084-1.895-2.652-1.895-4.71
			c0-2.292,0.767-4.299,2.301-6.022c1.598-1.787,3.536-2.68,5.82-2.68c1.805,0,3.216,0.452,4.235,1.355
			c1.074,0.949,1.611,2.31,1.611,4.082C123.141,28.943,123.018,30.011,122.775,31.159z M113.22,28.608h6.279
			c0.063-0.336,0.096-0.656,0.096-0.965c0-1.603-0.785-2.403-2.355-2.403c-1.074,0-1.944,0.316-2.612,0.95
			C114.086,26.706,113.617,27.512,113.22,28.608z"/>
		<path fill="#E9EAF4" d="M124.277,37.126l2.545-12.349c0.055-0.234,0.166-0.874,0.338-1.92h3.545l-0.5,2.694h0.055
			c0.352-0.803,0.926-1.502,1.719-2.098c0.828-0.623,1.664-0.932,2.504-0.932c0.568,0,1.037,0.044,1.406,0.134l-0.771,3.619
			c-0.443-0.145-0.914-0.216-1.42-0.216c-2.273,0-3.73,1.554-4.371,4.661l-1.34,6.408H124.277z"/>
		<path fill="#E9EAF4" d="M135.959,25.576l0.58-2.719h2.68l0.635-2.936l3.994-1.299l-0.908,4.234h3.316l-0.582,2.719h-3.316
			l-1.365,6.229c-0.107,0.505-0.162,0.964-0.162,1.378c0,0.928,0.469,1.392,1.406,1.392c0.668,0,1.273-0.112,1.813-0.337
			l-0.648,2.885c-1.02,0.227-1.684,0.34-1.988,0.34c-2.859,0-4.291-1.248-4.291-3.746c0-0.774,0.154-1.884,0.459-3.326l1.057-4.814
			H135.959z"/>
		<path fill="#E9EAF4" d="M157.517,23.104l-0.799,2.813c-1.2-0.452-2.215-0.677-3.044-0.677c-1.67,0-2.505,0.481-2.505,1.445
			c0,0.47,0.42,0.992,1.259,1.569c1.326,0.921,2.098,1.483,2.314,1.69c0.839,0.794,1.259,1.691,1.259,2.691
			c0,1.712-0.677,2.979-2.03,3.799c-1.101,0.686-2.571,1.027-4.411,1.027c-1.679,0-3.127-0.287-4.345-0.865l0.798-2.964
			c1.345,0.739,2.526,1.11,3.547,1.11c1.704,0,2.558-0.528,2.558-1.584c0-0.613-0.42-1.218-1.26-1.813
			c-0.766-0.542-1.537-1.084-2.313-1.625c-0.831-0.758-1.245-1.642-1.245-2.654c0-1.551,0.659-2.729,1.976-3.533
			c1.119-0.677,2.518-1.014,4.196-1.014C154.651,22.521,156.001,22.716,157.517,23.104z"/>
		<path fill="#E9EAF4" d="M167.166,22.521c1.958,0,3.528,0.549,4.711,1.651c1.218,1.137,1.826,2.674,1.826,4.615
			c0,2.517-0.791,4.592-2.375,6.226c-1.584,1.633-3.63,2.449-6.138,2.449c-2.012,0-3.595-0.582-4.751-1.746
			c-1.154-1.164-1.731-2.758-1.731-4.777c0-2.381,0.81-4.38,2.429-5.996C162.756,23.328,164.767,22.521,167.166,22.521z
			 M165.502,34.574c1.326,0,2.404-0.657,3.234-1.974c0.722-1.136,1.083-2.397,1.083-3.786c0-2.272-0.943-3.407-2.829-3.407
			c-1.362,0-2.463,0.645-3.302,1.934c-0.73,1.135-1.097,2.429-1.097,3.88C162.592,33.457,163.563,34.574,165.502,34.574z"/>
		<path fill="#E9EAF4" d="M176.41,37.126l2.45-11.55h-2.883l0.581-2.719h2.884c0.443-2.177,1.041-3.772,1.799-4.784
			c1.029-1.381,2.521-2.073,4.48-2.073c0.783,0,1.552,0.123,2.301,0.366l-0.854,2.779c-0.333-0.171-0.712-0.257-1.135-0.257
			c-0.896,0-1.585,0.475-2.072,1.423c-0.243,0.47-0.514,1.319-0.811,2.547h3.328l-0.582,2.719h-3.33l-2.436,11.55H176.41z"/>
		<path fill="#E9EAF4" d="M186.763,25.576l0.584-2.719h2.68l0.635-2.936l3.992-1.299l-0.906,4.234h3.316l-0.583,2.719h-3.313
			l-1.367,6.229c-0.109,0.505-0.164,0.964-0.164,1.378c0,0.928,0.469,1.392,1.407,1.392c0.668,0,1.272-0.112,1.813-0.337
			l-0.648,2.885c-1.021,0.227-1.684,0.34-1.99,0.34c-2.861,0-4.291-1.248-4.291-3.746c0-0.774,0.154-1.884,0.461-3.326l1.055-4.814
			H186.763z"/>
	</g>
	<g>
		<path fill="#E9EAF4" d="M140.232,52.903c-0.559,0.236-1.295,0.354-2.207,0.354c-1.539,0-2.77-0.457-3.699-1.374
			c-0.93-0.915-1.396-2.14-1.396-3.675c0-1.477,0.482-2.674,1.447-3.6c0.953-0.908,2.172-1.361,3.66-1.361
			c0.82,0,1.547,0.139,2.18,0.412l-0.117,1.346c-0.609-0.361-1.273-0.541-1.996-0.541c-1.098,0-1.996,0.359-2.691,1.075
			c-0.676,0.708-1.014,1.612-1.014,2.708c0,1.115,0.357,2.03,1.068,2.748c0.691,0.689,1.549,1.035,2.574,1.035
			c0.879,0,1.582-0.155,2.109-0.467L140.232,52.903z"/>
		<path fill="#E9EAF4" d="M148.494,49.558c0,1.028-0.335,1.896-1.003,2.604c-0.681,0.732-1.542,1.096-2.583,1.096
			c-1.055,0-1.922-0.363-2.605-1.096c-0.668-0.708-1.004-1.575-1.004-2.604c0-1.082,0.334-1.969,1-2.662
			c0.664-0.689,1.535-1.037,2.609-1.037c1.063,0,1.927,0.348,2.59,1.037C148.162,47.589,148.494,48.476,148.494,49.558z
			 M147.109,49.558c0-0.711-0.193-1.319-0.582-1.822c-0.416-0.545-0.955-0.818-1.619-0.818c-0.676,0-1.223,0.273-1.641,0.818
			c-0.391,0.503-0.586,1.111-0.586,1.822c0,0.703,0.18,1.299,0.537,1.79c0.408,0.567,0.969,0.851,1.689,0.851
			c0.707,0,1.267-0.283,1.673-0.851C146.935,50.856,147.109,50.261,147.109,49.558z"/>
		<path fill="#E9EAF4" d="M160.364,53.089h-1.312v-4.211c0-1.307-0.418-1.961-1.256-1.961c-0.62,0-1.095,0.27-1.423,0.807
			c-0.284,0.475-0.425,1.077-0.425,1.808v3.558h-1.312v-4.211c0-1.307-0.42-1.961-1.257-1.961c-0.623,0-1.098,0.271-1.426,0.813
			c-0.289,0.471-0.434,1.072-0.434,1.805v3.555h-1.3v-7.062h1.216v1.022h0.027c0.486-0.795,1.235-1.191,2.246-1.191
			c0.982,0,1.653,0.458,2.01,1.372c0.221-0.46,0.566-0.813,1.035-1.067c0.383-0.203,0.767-0.305,1.151-0.305
			c1.638,0,2.457,0.9,2.457,2.699V53.089z"/>
		<path fill="#E9EAF4" d="M169.281,49.429c0,1.068-0.239,1.949-0.717,2.638c-0.547,0.796-1.319,1.19-2.317,1.19
			c-1.106,0-1.895-0.379-2.364-1.14h-0.026V56h-1.3v-9.973h1.251v0.999h0.027c0.51-0.779,1.311-1.168,2.402-1.168
			c0.975,0,1.739,0.357,2.293,1.076C169.032,47.589,169.281,48.419,169.281,49.429z M167.898,49.531c0-0.722-0.146-1.317-0.441-1.79
			c-0.343-0.55-0.842-0.824-1.498-0.824c-0.669,0-1.196,0.277-1.581,0.83c-0.348,0.496-0.521,1.104-0.521,1.824
			c0,0.676,0.165,1.262,0.494,1.756c0.385,0.582,0.917,0.871,1.595,0.871c0.637,0,1.14-0.305,1.505-0.918
			C167.749,50.771,167.898,50.19,167.898,49.531z"/>
		<path fill="#E9EAF4" d="M177.278,53.089h-1.263V51.96h-0.027c-0.19,0.398-0.499,0.715-0.925,0.949
			c-0.427,0.231-0.891,0.348-1.393,0.348c-1.766,0-2.647-1.012-2.647-3.035v-4.194h1.299v3.649c0,0.857,0.108,1.479,0.325,1.866
			c0.231,0.423,0.624,0.642,1.181,0.655c0.714,0.018,1.257-0.248,1.629-0.797c0.348-0.506,0.522-1.209,0.522-2.109v-3.265h1.299
			V53.089z"/>
		<path fill="#E9EAF4" d="M183.362,53.06c-0.452,0.132-0.82,0.197-1.109,0.197c-1.451,0-2.176-0.684-2.176-2.057v-4.127h-1.6v-1.046
			h1.6v-1.64l1.299-0.416v2.056h1.877v1.046h-1.877v3.867c0,0.393,0.109,0.704,0.324,0.935c0.203,0.216,0.463,0.323,0.773,0.323
			c0.335,0,0.631-0.084,0.889-0.25V53.06z"/>
		<path fill="#E9EAF4" d="M190.849,49.853h-5.053c0,0.679,0.234,1.244,0.703,1.691c0.449,0.437,0.99,0.654,1.627,0.654
			c0.393,0,0.824-0.085,1.293-0.256c0.402-0.142,0.698-0.291,0.889-0.447V52.8c-0.85,0.305-1.594,0.457-2.234,0.457
			c-1.218,0-2.141-0.354-2.768-1.055c-0.596-0.658-0.895-1.582-0.895-2.773c0-1.05,0.305-1.908,0.916-2.572
			c0.609-0.665,1.411-0.998,2.404-0.998C189.81,45.858,190.849,47.19,190.849,49.853z M189.465,48.878
			c0-0.559-0.155-1.021-0.461-1.385c-0.327-0.384-0.759-0.576-1.304-0.576c-0.587,0-1.052,0.213-1.396,0.635
			c-0.279,0.352-0.449,0.795-0.508,1.326H189.465z"/>
		<path fill="#E9EAF4" d="M196.546,47.122c-0.203-0.08-0.444-0.119-0.725-0.119c-0.588,0-1.059,0.258-1.407,0.775
			c-0.349,0.519-0.526,1.219-0.526,2.102v3.209h-1.299v-7.062h1.215v1.089h0.027c0.176-0.37,0.436-0.672,0.775-0.905
			c0.344-0.235,0.702-0.353,1.078-0.353c0.249,0,0.537,0.031,0.861,0.096V47.122z"/>
		<path fill="#E9EAF4" d="M201.856,53.06c-0.453,0.132-0.822,0.197-1.111,0.197c-1.449,0-2.172-0.684-2.172-2.057v-4.127h-1.602
			v-1.046h1.602v-1.64l1.299-0.416v2.056h1.875v1.046h-1.875v3.867c0,0.393,0.107,0.704,0.324,0.935
			c0.203,0.216,0.461,0.323,0.771,0.323c0.334,0,0.631-0.084,0.889-0.25V53.06z"/>
		<path fill="#E9EAF4" d="M209.341,49.853h-5.052c0,0.679,0.237,1.244,0.706,1.691c0.446,0.437,0.986,0.654,1.625,0.654
			c0.393,0,0.822-0.085,1.293-0.256c0.402-0.142,0.699-0.291,0.888-0.447V52.8c-0.849,0.305-1.593,0.457-2.233,0.457
			c-1.219,0-2.141-0.354-2.768-1.055c-0.596-0.658-0.895-1.582-0.895-2.773c0-1.05,0.307-1.908,0.916-2.572
			c0.609-0.665,1.41-0.998,2.404-0.998C208.302,45.858,209.341,47.19,209.341,49.853z M207.958,48.878
			c0-0.559-0.152-1.021-0.461-1.385c-0.325-0.384-0.759-0.576-1.302-0.576c-0.589,0-1.052,0.213-1.396,0.635
			c-0.281,0.352-0.452,0.795-0.511,1.326H207.958z"/>
		<path fill="#E9EAF4" d="M215.751,52.966c-0.42,0.194-0.967,0.291-1.641,0.291c-1.049,0-1.914-0.363-2.602-1.096
			c-0.669-0.708-1.004-1.575-1.004-2.604c0-1.082,0.334-1.969,0.999-2.662c0.665-0.689,1.532-1.037,2.603-1.037
			c0.601,0,1.128,0.092,1.585,0.278l-0.116,1.085c-0.486-0.203-0.961-0.305-1.416-0.305c-0.693,0-1.252,0.273-1.68,0.818
			c-0.395,0.498-0.59,1.105-0.59,1.822c0,0.707,0.184,1.305,0.551,1.79c0.424,0.567,1.027,0.851,1.813,0.851
			c0.523,0,0.992-0.133,1.403-0.4L215.751,52.966z"/>
		<path fill="#E9EAF4" d="M223.489,53.089h-1.299v-3.656c0-0.857-0.108-1.479-0.326-1.867c-0.23-0.418-0.621-0.635-1.173-0.648
			c-0.715-0.021-1.261,0.242-1.636,0.791c-0.349,0.508-0.521,1.215-0.521,2.116v3.265h-1.3V42.694h1.3v4.346h0.025
			c0.498-0.787,1.258-1.182,2.279-1.182c1.768,0,2.65,1.012,2.65,3.029V53.089z"/>
		<path fill="#E9EAF4" d="M231.956,53.089h-1.3v-3.656c0-0.857-0.108-1.479-0.325-1.867c-0.232-0.418-0.623-0.635-1.175-0.648
			c-0.715-0.021-1.261,0.24-1.636,0.789c-0.348,0.508-0.521,1.213-0.521,2.117v3.266H225.7v-7.062h1.264v1.116h0.025
			c0.195-0.391,0.506-0.703,0.93-0.938c0.422-0.232,0.887-0.348,1.389-0.348c1.766,0,2.648,1.012,2.648,3.029V53.089z"/>
		<path fill="#E9EAF4" d="M235.729,44.44h-1.48v-1.469h1.48V44.44z M235.645,53.089h-1.312v-7.062h1.312V53.089z"/>
		<path fill="#E9EAF4" d="M244.351,53.089h-1.87l-3.165-3.633v3.633h-1.299V42.694h1.299v6.192l2.842-2.859h1.777l-3.286,3.124
			L244.351,53.089z"/>
	</g>
</g>
<g id="TYPO3_Logo">
	<path fill="#EF861D" d="M41.83,38.56c-0.816,0.273-1.497,0.273-2.315,0.273c-7.085,0-17.577-24.8-17.577-33.113
		c0-2.998,0.682-4.087,1.771-4.904C14.988,1.906,4.497,5.04,1.227,9.127C0.409,10.219,0,11.716,0,13.76
		C0,26.706,13.762,56,23.573,56C28.069,56,35.563,48.641,41.83,38.56"/>
	<path fill="#EF861D" d="M37.335,0C46.329,0,55.32,1.497,55.32,6.539c0,10.355-6.541,22.754-9.81,22.754
		c-5.996,0-13.489-16.487-13.489-24.798C32.021,0.679,33.519,0,37.335,0"/>
</g>
</svg>
